<svg xmlns="http://www.w3.org/2000/svg" xmlns:xlink="http://www.w3.org/1999/xlink" width="63" height="63" viewBox="0 0 63 63" fill="none"><defs><linearGradient id="linear_0" x1="87.01075911521912%" y1="3.5553578287363052%" x2="25.548598170280457%" y2="96.88600897789001%" gradientUnits="objectBoundingBox"><stop offset="0" stop-color="#FFFFFF" stop-opacity="1" /><stop offset="1" stop-color="#FEF2F4" stop-opacity="1" /></linearGradient><filter id="filter_2" x="-6" y="-6" width="63" height="63" filterUnits="userSpaceOnUse" color-interpolation-filters="sRGB"><feFlood flood-opacity="0" result="BackgroundImageFix"/>
          <feColorMatrix in="SourceAlpha" type="matrix" values="0 0 0 0 0 0 0 0 0 0 0 0 0 0 0 0 0 0 127 0"/>
          <feOffset dx="0" dy="3"/>
          <feGaussianBlur stdDeviation="3"/>
          <feColorMatrix type="matrix" values="0 0 0 0 0.9333333333333333 0 0 0 0 0.9333333333333333 0 0 0 0 0.9333333333333333 0 0 0 1 0"/>
          <feBlend mode="normal" in2="BackgroundImageFix" result="effect1_Shadow"/>
          <feBlend mode="normal" in="SourceGraphic" in2="effect1_Shadow" result="shape"/></filter><filter id="filter_4" x="11.364883422851562" y="8" width="32.1891632080079" height="35.55402946472168" filterUnits="userSpaceOnUse" color-interpolation-filters="sRGB"><feFlood flood-opacity="0" result="BackgroundImageFix"/>
          <feColorMatrix in="SourceAlpha" type="matrix" values="0 0 0 0 0 0 0 0 0 0 0 0 0 0 0 0 0 0 127 0"/>
          <feOffset dx="0" dy="3"/>
          <feGaussianBlur stdDeviation="3"/>
          <feColorMatrix type="matrix" values="0 0 0 0 1 0 0 0 0 0.2823529411764706 0 0 0 0 0.34509803921568627 0 0 0 0.2 0"/>
          <feBlend mode="normal" in2="BackgroundImageFix" result="effect1_Shadow"/>
          <feBlend mode="normal" in="SourceGraphic" in2="effect1_Shadow" result="shape"/></filter><filter id="filter_8" x="8" y="10.243247985839844" width="30.50672149658466" height="33.310783386230426" filterUnits="userSpaceOnUse" color-interpolation-filters="sRGB"><feFlood flood-opacity="0" result="BackgroundImageFix"/>
          <feColorMatrix in="SourceAlpha" type="matrix" values="0 0 0 0 0 0 0 0 0 0 0 0 0 0 0 0 0 0 127 0"/>
          <feOffset dx="0" dy="3"/>
          <feGaussianBlur stdDeviation="3"/>
          <feColorMatrix type="matrix" values="0 0 0 0 1 0 0 0 0 0.2823529411764706 0 0 0 0 0.34509803921568627 0 0 0 0.2 0"/>
          <feBlend mode="normal" in2="BackgroundImageFix" result="effect1_Shadow"/>
          <feBlend mode="normal" in="SourceGraphic" in2="effect1_Shadow" result="shape"/></filter></defs><g opacity="1" transform="translate(6 3)  rotate(0 25.5 25.5)"><g id="矩形 7660" filter="url(#filter_2)"><path id="矩形 7660" fill-rule="evenodd" fill="url(#linear_0)" transform="translate(0 0)  rotate(0 25.5 25.5)" opacity="1" d="M19,51L32,51C42.49,51 51,42.49 51,32L51,19C51,8.51 42.49,0 32,0L19,0C8.51,0 0,8.51 0,19L0,32C0,42.49 8.51,51 19,51Z " /></g><g id="路径 5155" filter="url(#filter_4)"><path id="路径 5155" fill-rule="evenodd" style="fill:#FFA3AB" transform="translate(17.364883422851562 14)  rotate(0 10.094581604003949 11.77701473236084)" opacity="1" d="M20.19 10.15C20.19 12.9 19.12 15.37 17.39 17.22C17.89 18.45 18.28 19.74 18.56 20.86C18.9 22.21 17.89 23.55 16.49 23.55L3.7 23.55C2.3 23.55 1.29 22.21 1.63 20.86C1.91 19.74 2.3 18.45 2.8 17.22C1.07 15.37 0 12.9 0 10.15C0 4.54 4.54 0 10.09 0C15.65 0 20.19 4.54 20.19 10.15Z" /></g><path id="路径 5156" fill-rule="evenodd" style="fill:#FFFFFF" transform="translate(23.367856897602906 24.711456298828125)  rotate(0 4.091594253124896 2.131103515625)" opacity="1" d="M1.06 0L7.12 0C7.85 0 8.35 0.73 8.13 1.4C7.51 3.08 5.94 4.26 4.09 4.26C2.24 4.26 0.67 3.08 0.05 1.4C-0.17 0.73 0.33 0 1.06 0Z" /><g id="路径 5157" filter="url(#filter_8)"><path id="路径 5157" fill-rule="evenodd" style="fill:#FF4858" transform="translate(14 16.243247985839844)  rotate(0 9.25336074829233 10.655391693115213)" opacity="1" d="M1.51 18.9C1.79 17.89 2.13 16.71 2.58 15.59C1.01 13.91 0 11.66 0 9.2C0 4.09 4.15 0 9.25 0C14.36 0 18.51 4.09 18.51 9.2C18.51 11.66 17.55 13.91 15.93 15.59C16.38 16.71 16.71 17.89 16.99 18.9C17.27 20.13 16.38 21.31 15.09 21.31L3.42 21.31C2.13 21.31 1.23 20.13 1.51 18.9Z" /></g><path id="路径 5158" fill-rule="evenodd" style="fill:#FFFFFF" transform="translate(19.516537502277174 25.945281982421875)  rotate(0 3.7460870668194985 1.93475341796875)" opacity="1" d="M0.99 0L6.48 0C7.16 0 7.66 0.67 7.44 1.29C6.88 2.8 5.42 3.87 3.74 3.87C2.05 3.87 0.6 2.75 0.04 1.29C-0.13 0.67 0.32 0 0.99 0Z" /></g></svg>