<svg xmlns="http://www.w3.org/2000/svg" xmlns:xlink="http://www.w3.org/1999/xlink" width="63" height="63" viewBox="0 0 63 63" fill="none"><defs><linearGradient id="linear_0" x1="81.2375545501709%" y1="6.7626953125%" x2="18.783509731292725%" y2="92.56376624107361%" gradientUnits="objectBoundingBox"><stop offset="0" stop-color="#FFFFFF" stop-opacity="1" /><stop offset="1" stop-color="#FFF7F3" stop-opacity="1" /></linearGradient><filter id="filter_2" x="-6" y="-6" width="63" height="63" filterUnits="userSpaceOnUse" color-interpolation-filters="sRGB"><feFlood flood-opacity="0" result="BackgroundImageFix"/>
          <feColorMatrix in="SourceAlpha" type="matrix" values="0 0 0 0 0 0 0 0 0 0 0 0 0 0 0 0 0 0 127 0"/>
          <feOffset dx="0" dy="3"/>
          <feGaussianBlur stdDeviation="3"/>
          <feColorMatrix type="matrix" values="0 0 0 0 0.9333333333333333 0 0 0 0 0.9333333333333333 0 0 0 0 0.9333333333333333 0 0 0 1 0"/>
          <feBlend mode="normal" in2="BackgroundImageFix" result="effect1_Shadow"/>
          <feBlend mode="normal" in="SourceGraphic" in2="effect1_Shadow" result="shape"/></filter><linearGradient id="linear_1" x1="50%" y1="0%" x2="51%" y2="100%" gradientUnits="objectBoundingBox"><stop offset="0" stop-color="#FFA660" stop-opacity="1" /><stop offset="1" stop-color="#FE844B" stop-opacity="1" /></linearGradient><filter id="filter_4" x="5.999992370605497" y="5.999992370605469" width="39.3852615356445" height="39.3852615356445" filterUnits="userSpaceOnUse" color-interpolation-filters="sRGB"><feFlood flood-opacity="0" result="BackgroundImageFix"/>
          <feColorMatrix in="SourceAlpha" type="matrix" values="0 0 0 0 0 0 0 0 0 0 0 0 0 0 0 0 0 0 127 0"/>
          <feOffset dx="0" dy="3"/>
          <feGaussianBlur stdDeviation="3"/>
          <feColorMatrix type="matrix" values="0 0 0 0 0.996078431372549 0 0 0 0 0.5254901960784314 0 0 0 0 0.2980392156862745 0 0 0 0.4 0"/>
          <feBlend mode="normal" in2="BackgroundImageFix" result="effect1_Shadow"/>
          <feBlend mode="normal" in="SourceGraphic" in2="effect1_Shadow" result="shape"/></filter></defs><g opacity="1" transform="translate(6 3)  rotate(0 25.5 25.5)"><g id="矩形 7653" filter="url(#filter_2)"><path id="矩形 7653" fill-rule="evenodd" fill="url(#linear_0)" transform="translate(0 0)  rotate(0 25.5 25.5)" opacity="1" d="M19,51L32,51C42.49,51 51,42.49 51,32L51,19C51,8.51 42.49,0 32,0L19,0C8.51,0 0,8.51 0,19L0,32C0,42.49 8.51,51 19,51Z " /></g><g id="路径 2774" filter="url(#filter_4)"><path id="路径 2774" fill-rule="evenodd" fill="url(#linear_1)" transform="translate(11.999992370605497 11.999992370605469)  rotate(0 13.692630767822251 13.692630767822251)" opacity="1" d="M18.21 15.4025Z M9.17998 11.5625C8.56998 11.5625 8.06998 12.0625 8.06998 12.6625C8.06998 13.2725 8.56998 13.7725 9.16998 13.7725L12.59 13.7725L12.59 15.4025L9.17998 15.4025C8.56998 15.4025 8.06998 15.9025 8.06998 16.5125C8.06998 17.1225 8.56998 17.6125 9.17998 17.6125L12.59 17.6125L12.59 20.4625C12.59 21.0725 13.08 21.5625 13.69 21.5725C14.3 21.5625 14.79 21.0725 14.8 20.4625L14.8 17.6125L18.21 17.6125C18.82 17.6125 19.32 17.1225 19.32 16.5125C19.32 15.9025 18.82 15.4025 18.21 15.4025L14.8 15.4025L14.8 13.7725L18.22 13.7725C18.83 13.7725 19.32 13.2725 19.32 12.6625C19.32 12.0525 18.82 11.5625 18.22 11.5625L15.76 11.5625L18.73 8.10251C19.12 7.64251 19.07 6.94251 18.61 6.54251C18.14 6.15251 17.45 6.20251 17.05 6.67251L13.7 10.5825L10.34 6.67251C9.93998 6.20251 9.24998 6.15251 8.77998 6.54251C8.31998 6.94251 8.26998 7.64251 8.65998 8.10251L11.63 11.5625L9.17998 11.5625Z M13.69 0Z M13.69 27.39C21.25 27.39 27.39 21.25 27.39 13.69C27.39 6.13 21.25 0 13.69 0C6.13 0 0 6.13 0 13.69C0 21.25 6.13 27.39 13.69 27.39Z " /></g></g></svg>