<svg xmlns="http://www.w3.org/2000/svg" xmlns:xlink="http://www.w3.org/1999/xlink" width="63" height="63" viewBox="0 0 63 63" fill="none"><defs><linearGradient id="linear_0" x1="80.93788027763367%" y1="0%" x2="23.737171292304993%" y2="90.81265330314636%" gradientUnits="objectBoundingBox"><stop offset="0" stop-color="#FFFFFF" stop-opacity="1" /><stop offset="1" stop-color="#EEFBFF" stop-opacity="1" /></linearGradient><filter id="filter_2" x="-6" y="-6" width="63" height="63" filterUnits="userSpaceOnUse" color-interpolation-filters="sRGB"><feFlood flood-opacity="0" result="BackgroundImageFix"/>
          <feColorMatrix in="SourceAlpha" type="matrix" values="0 0 0 0 0 0 0 0 0 0 0 0 0 0 0 0 0 0 127 0"/>
          <feOffset dx="0" dy="3"/>
          <feGaussianBlur stdDeviation="3"/>
          <feColorMatrix type="matrix" values="0 0 0 0 0.9333333333333333 0 0 0 0 0.9333333333333333 0 0 0 0 0.9333333333333333 0 0 0 1 0"/>
          <feBlend mode="normal" in2="BackgroundImageFix" result="effect1_Shadow"/>
          <feBlend mode="normal" in="SourceGraphic" in2="effect1_Shadow" result="shape"/></filter><linearGradient id="linear_1" x1="50%" y1="0%" x2="51%" y2="100%" gradientUnits="objectBoundingBox"><stop offset="0" stop-color="#6BBCFF" stop-opacity="1" /><stop offset="1" stop-color="#0D92FF" stop-opacity="1" /></linearGradient><filter id="filter_4" x="3.8100000000000023" y="6.389999999999986" width="43.260000000000005" height="37.61" filterUnits="userSpaceOnUse" color-interpolation-filters="sRGB"><feFlood flood-opacity="0" result="BackgroundImageFix"/>
          <feColorMatrix in="SourceAlpha" type="matrix" values="0 0 0 0 0 0 0 0 0 0 0 0 0 0 0 0 0 0 127 0"/>
          <feOffset dx="0" dy="3"/>
          <feGaussianBlur stdDeviation="3"/>
          <feColorMatrix type="matrix" values="0 0 0 0 0.2196078431372549 0 0 0 0 0.6470588235294118 0 0 0 0 1 0 0 0 0.35 0"/>
          <feBlend mode="normal" in2="BackgroundImageFix" result="effect1_Shadow"/>
          <feBlend mode="normal" in="SourceGraphic" in2="effect1_Shadow" result="shape"/></filter></defs><g opacity="1" transform="translate(6 3)  rotate(0 25.5 25.5)"><g id="矩形 7664" filter="url(#filter_2)"><path id="矩形 7664" fill-rule="evenodd" fill="url(#linear_0)" transform="translate(0 0)  rotate(0 25.5 25.5)" opacity="1" d="M19,51L32,51C42.49,51 51,42.49 51,32L51,19C51,8.51 42.49,0 32,0L19,0C8.51,0 0,8.51 0,19L0,32C0,42.49 8.51,51 19,51Z " /></g><g id="联合 2" filter="url(#filter_4)"><path id="联合 2" fill-rule="evenodd" fill="url(#linear_1)" transform="translate(9.810000000000002 12.389999999999986)  rotate(0 15.63 12.805)" opacity="1" d="M15.5801 25.61C19.0001 25.61 22.2201 24.28 24.6401 21.86C25.6987 20.8014 26.5487 19.5898 27.17 18.2753C29.4605 17.907 31.2238 15.9367 31.2595 13.5365C31.2929 11.2914 29.8077 9.38064 27.7516 8.78678C27.1341 6.90962 26.08 5.18996 24.6401 3.75C22.2201 1.33 19.0001 0 15.5801 0C12.1601 0 8.95009 1.33 6.53009 3.75C5.08174 5.19835 4.02382 6.92968 3.40778 8.81964C1.40596 9.44857 -0.0331125 11.3312 -0.000320244 13.5365C0.0396798 16.2265 2.24968 18.3765 4.93968 18.3365L4.82026 10.0286C6.05451 5.24238 10.408 1.69 15.5801 1.69C20.8902 1.69 25.3449 5.43449 26.4415 10.4143L26.3629 15.5221C25.1451 20.3413 20.7714 23.92 15.5801 23.92C15.1201 23.92 14.7401 24.3 14.7401 24.77C14.7401 25.23 15.1201 25.61 15.5801 25.61Z M15.29 3.24C20.44 3.24 24.61 7.41 24.61 12.56C24.61 17.71 20.44 21.88 15.29 21.88C10.14 21.88 5.97 17.71 5.97 12.56C5.97 7.41 10.14 3.24 15.29 3.24Z M15.2959 18.3791C15.2959 18.3791 10.1759 18.7391 10.3359 13.5491C10.3359 13.5491 15.4559 18.0191 20.2459 13.5491C20.2459 13.5491 20.4259 18.3891 15.2959 18.3791Z " /></g><path id="路径 5170" fill-rule="evenodd" style="fill:#0D92FF" transform="translate(24.118408203125 34.80712890625)  rotate(0 2.1134948730469034 2.11346435546875)" opacity="1" d="M2.11 0C3.28 0 4.23 0.95 4.23 2.11C4.23 3.28 3.28 4.23 2.11 4.23C0.95 4.23 0 3.28 0 2.11C0 0.95 0.95 0 2.11 0Z" /></g></svg>