<svg xmlns="http://www.w3.org/2000/svg" xmlns:xlink="http://www.w3.org/1999/xlink" width="63" height="63" viewBox="0 0 63 63" fill="none"><defs><linearGradient id="linear_0" x1="80.93788027763367%" y1="0%" x2="23.737171292304993%" y2="90.81265330314636%" gradientUnits="objectBoundingBox"><stop offset="0" stop-color="#FFFFFF" stop-opacity="1" /><stop offset="1" stop-color="#EEF0FF" stop-opacity="1" /></linearGradient><filter id="filter_2" x="-6" y="-6" width="63" height="63" filterUnits="userSpaceOnUse" color-interpolation-filters="sRGB"><feFlood flood-opacity="0" result="BackgroundImageFix"/>
          <feColorMatrix in="SourceAlpha" type="matrix" values="0 0 0 0 0 0 0 0 0 0 0 0 0 0 0 0 0 0 127 0"/>
          <feOffset dx="0" dy="3"/>
          <feGaussianBlur stdDeviation="3"/>
          <feColorMatrix type="matrix" values="0 0 0 0 0.9333333333333333 0 0 0 0 0.9333333333333333 0 0 0 0 0.9333333333333333 0 0 0 1 0"/>
          <feBlend mode="normal" in2="BackgroundImageFix" result="effect1_Shadow"/>
          <feBlend mode="normal" in="SourceGraphic" in2="effect1_Shadow" result="shape"/></filter><linearGradient id="linear_1" x1="50%" y1="0%" x2="51%" y2="100%" gradientUnits="objectBoundingBox"><stop offset="0" stop-color="#7385E3" stop-opacity="1" /><stop offset="1" stop-color="#475CD9" stop-opacity="1" /></linearGradient><filter id="filter_4" x="7" y="8" width="36.27490234375" height="34.79413604736328" filterUnits="userSpaceOnUse" color-interpolation-filters="sRGB"><feFlood flood-opacity="0" result="BackgroundImageFix"/>
          <feColorMatrix in="SourceAlpha" type="matrix" values="0 0 0 0 0 0 0 0 0 0 0 0 0 0 0 0 0 0 127 0"/>
          <feOffset dx="0" dy="3"/>
          <feGaussianBlur stdDeviation="3"/>
          <feColorMatrix type="matrix" values="0 0 0 0 0.4117647058823529 0 0 0 0 0.4823529411764706 0 0 0 0 0.8784313725490196 0 0 0 0.64 0"/>
          <feBlend mode="normal" in2="BackgroundImageFix" result="effect1_Shadow"/>
          <feBlend mode="normal" in="SourceGraphic" in2="effect1_Shadow" result="shape"/></filter></defs><g opacity="1" transform="translate(6 3)  rotate(0 25.5 25.5)"><g id="矩形 7654" filter="url(#filter_2)"><path id="矩形 7654" fill-rule="evenodd" fill="url(#linear_0)" transform="translate(0 0)  rotate(0 25.5 25.5)" opacity="1" d="M19,51L32,51C42.49,51 51,42.49 51,32L51,19C51,8.51 42.49,0 32,0L19,0C8.51,0 0,8.51 0,19L0,32C0,42.49 8.51,51 19,51Z " /></g><g id="路径 5142" filter="url(#filter_4)"><path id="路径 5142" fill-rule="evenodd" fill="url(#linear_1)" transform="translate(13 14)  rotate(0 12.137451171875 11.39706802368164)" opacity="1" d="M8.67 9.54Z M17.34 3.47C17.34 1.55 13.46 0 8.67 0C3.88 0 0 1.55 0 3.47L0 6.07C0 7.98 3.88 9.54 8.67 9.54C13.46 9.54 17.34 7.98 17.34 6.07L17.34 3.47Z M19.0707 10.528Z M13.8707 14.168C13.8707 15.318 16.2007 16.248 19.0707 16.248C21.9507 16.248 24.2707 15.318 24.2707 14.168L24.2707 12.608C24.2707 11.458 21.9507 10.528 19.0707 10.528C16.2007 10.528 13.8707 11.458 13.8707 12.608L13.8707 14.168Z M19.0707 16.8683Z M13.8707 16.3483C13.8707 17.4983 16.2007 18.4283 19.0707 18.4283C21.9507 18.4283 24.2707 17.4983 24.2707 16.3483L24.2707 14.7883C24.2707 15.9383 21.9507 16.8683 19.0707 16.8683C16.2007 16.8683 13.8707 15.9383 13.8707 14.7883L13.8707 16.3483Z M19.0707 19.0506Z M13.8707 18.5306C13.8707 19.6806 16.2007 20.6106 19.0707 20.6106C21.9507 20.6106 24.2707 19.6806 24.2707 18.5306L24.2707 16.9706C24.2707 18.1206 21.9507 19.0506 19.0707 19.0506C16.2007 19.0506 13.8707 18.1206 13.8707 16.9706L13.8707 18.5306Z M19.0707 21.2329Z M13.8707 20.7129C13.8707 21.8629 16.2007 22.7929 19.0707 22.7929C21.9507 22.7929 24.2707 21.8629 24.2707 20.7129L24.2707 19.1529C24.2707 20.3029 21.9507 21.2329 19.0707 21.2329C16.2007 21.2329 13.8707 20.3029 13.8707 19.1529L13.8707 20.7129Z M13.0024 13.198L13.0024 11.938L13.0424 11.938C13.2424 10.978 15.0224 10.208 17.3424 10.058L17.3424 7.59805L17.3424 7.59805C17.3424 9.51805 13.4624 11.068 8.67243 11.068C3.88243 11.068 0.0024271 9.51805 0.0024271 7.59805L0.0024271 10.198C0.0024271 12.118 3.88243 13.668 8.67243 13.668C10.1324 13.678 11.5824 13.518 13.0024 13.198Z M0 11.7272Z M0 14.3272C0 16.2472 3.88 17.7972 8.67 17.7972C10.13 17.8072 11.58 17.6472 13 17.3272L13 14.7272C11.58 15.0472 10.13 15.2072 8.67 15.1972C3.88 15.1972 0 13.6472 0 11.7272L0 14.3272Z M0 15.8588Z M0 18.4588C0 20.3788 3.88 21.9288 8.67 21.9288C10.13 21.9388 11.58 21.7788 13 21.4588L13 18.8588C11.58 19.1788 10.13 19.3288 8.67 19.3288C3.88 19.3288 0 17.7788 0 15.8588L0 18.4588Z M0 11.7272 M0 11.7272C0 11.7272 0 11.7272 0 11.7272 M0 15.8588 M0 15.8588C0 15.8588 0 15.8588 0 15.8588 " /></g></g></svg>